<?xml version="1.0"?>
<svg width="640" height="480" xmlns="http://www.w3.org/2000/svg" xmlns:svg="http://www.w3.org/2000/svg" xmlns:xlink="http://www.w3.org/1999/xlink">
 <!-- Created with SVG-edit - https://github.com/SVG-Edit/svgedit-->
 <defs>
  <symbol height="512" id="svg_2" viewBox="0 0 24 24" width="512" xmlns="http://www.w3.org/2000/svg">
   <path d="m15.5,14.5c-1.378,0 -2.5,-1.122 -2.5,-2.5s1.122,-2.5 2.5,-2.5s2.5,1.122 2.5,2.5s-1.122,2.5 -2.5,2.5zm0,-3.5c-0.551,0 -1,0.449 -1,1s0.449,1 1,1s1,-0.449 1,-1s-0.449,-1 -1,-1z"/>
   <path d="m15.5,10.5c-0.414,0 -0.75,-0.336 -0.75,-0.75l0,-2c0,-0.689 -0.561,-1.25 -1.25,-1.25l-3,0c-0.414,0 -0.75,-0.336 -0.75,-0.75s0.336,-0.75 0.75,-0.75l3,0c1.517,0 2.75,1.233 2.75,2.75l0,2c0,0.414 -0.336,0.75 -0.75,0.75z"/>
   <path d="m13.5,19l-3,0c-0.414,0 -0.75,-0.336 -0.75,-0.75s0.336,-0.75 0.75,-0.75l3,0c0.689,0 1.25,-0.561 1.25,-1.25l0,-2c0,-0.414 0.336,-0.75 0.75,-0.75s0.75,0.336 0.75,0.75l0,2c0,1.517 -1.233,2.75 -2.75,2.75z"/>
   <path d="m13.25,12.75l-2.5,0c-0.414,0 -0.75,-0.336 -0.75,-0.75s0.336,-0.75 0.75,-0.75l2.5,0c0.414,0 0.75,0.336 0.75,0.75s-0.336,0.75 -0.75,0.75z"/>
   <path d="m9.25,8l-1.5,0c-0.965,0 -1.75,-0.785 -1.75,-1.75l0,-1.5c0,-0.965 0.785,-1.75 1.75,-1.75l1.5,0c0.965,0 1.75,0.785 1.75,1.75l0,1.5c0,0.965 -0.785,1.75 -1.75,1.75zm-1.5,-3.5c-0.138,0 -0.25,0.112 -0.25,0.25l0,1.5c0,0.138 0.112,0.25 0.25,0.25l1.5,0c0.138,0 0.25,-0.112 0.25,-0.25l0,-1.5c0,-0.138 -0.112,-0.25 -0.25,-0.25l-1.5,0z"/>
   <path d="m9.25,14.5l-1.5,0c-0.965,0 -1.75,-0.785 -1.75,-1.75l0,-1.5c0,-0.965 0.785,-1.75 1.75,-1.75l1.5,0c0.965,0 1.75,0.785 1.75,1.75l0,1.5c0,0.965 -0.785,1.75 -1.75,1.75zm-1.5,-3.5c-0.138,0 -0.25,0.112 -0.25,0.25l0,1.5c0,0.138 0.112,0.25 0.25,0.25l1.5,0c0.138,0 0.25,-0.112 0.25,-0.25l0,-1.5c0,-0.138 -0.112,-0.25 -0.25,-0.25l-1.5,0z"/>
   <path d="m9.25,21l-1.5,0c-0.965,0 -1.75,-0.785 -1.75,-1.75l0,-1.5c0,-0.965 0.785,-1.75 1.75,-1.75l1.5,0c0.965,0 1.75,0.785 1.75,1.75l0,1.5c0,0.965 -0.785,1.75 -1.75,1.75zm-1.5,-3.5c-0.138,0 -0.25,0.112 -0.25,0.25l0,1.5c0,0.138 0.112,0.25 0.25,0.25l1.5,0c0.138,0 0.25,-0.112 0.25,-0.25l0,-1.5c0,-0.138 -0.112,-0.25 -0.25,-0.25l-1.5,0z"/>
   <path d="m18.25,24l-12.5,0c-1.517,0 -2.75,-1.233 -2.75,-2.75l0,-18.5c0,-1.517 1.233,-2.75 2.75,-2.75l12.5,0c1.517,0 2.75,1.233 2.75,2.75l0,18.5c0,1.517 -1.233,2.75 -2.75,2.75zm-12.5,-22.5c-0.689,0 -1.25,0.561 -1.25,1.25l0,18.5c0,0.689 0.561,1.25 1.25,1.25l12.5,0c0.689,0 1.25,-0.561 1.25,-1.25l0,-18.5c0,-0.689 -0.561,-1.25 -1.25,-1.25l-12.5,0z"/>
  </symbol>
 </defs>
 <g class="layer">
  <title>Layer 1</title>
  <use fill="#0000ff" id="svg_3" transform="matrix(0.602776 0 0 0.503624 -491.453 -565.164)" x="1017.473842" xlink:href="#svg_2" y="1371.861204"/>
  <g id="svg_4"/>
 </g>
</svg>