<svg id="Calque_1" data-name="Calque 1" xmlns="http://www.w3.org/2000/svg" viewBox="0 0 368.4 331.73"><defs><style>.cls-1,.cls-5{fill:#82bbf1;}.cls-1{opacity:0.42;}.cls-2,.cls-9{fill:#d3e3eb;}.cls-2{opacity:0.43;}.cls-3{fill:#b0c4cb;}.cls-4{fill:#91adb7;}.cls-16,.cls-6,.cls-8{fill:#476488;}.cls-7{fill:#83b6ec;}.cls-8{opacity:0.25;}.cls-10{fill:#e3bd78;}.cls-11,.cls-17{fill:#2c3c4d;}.cls-12{fill:#1f2e40;}.cls-13,.cls-15{fill:#d4904f;}.cls-14{fill:#8ba6af;}.cls-15{opacity:0.67;}.cls-16{opacity:0.29;}.cls-17{opacity:0.48;}.cls-18{fill:#5d8ac8;}.cls-19{fill:#4772a6;}.cls-20{fill:#293951;}</style></defs><title>pc</title><path class="cls-1" d="M145.19,407.55H346.41c44.85-30.91,74.17-81.9,74.17-139.61,0-94.32-78.25-184.34-174.78-184.34S71,173.62,71,267.94C71,325.65,100.34,376.64,145.19,407.55Z" transform="translate(-61.6 -83.6)"/><path class="cls-2" d="M430,408.07c0-4-82.47-7.26-184.2-7.26s-184.2,3.25-184.2,7.26,82.47,7.26,184.2,7.26S430,412.08,430,408.07Z" transform="translate(-61.6 -83.6)"/><rect class="cls-3" x="115.71" y="237.1" width="8.38" height="80.14"/><rect class="cls-4" x="115.71" y="237.1" width="8.38" height="11.27"/><path class="cls-3" d="M85,317.27H157.4a3.81,3.81,0,0,1,3.81,3.81v3.55a0,0,0,0,1,0,0h-80a0,0,0,0,1,0,0v-3.55A3.81,3.81,0,0,1,85,317.27Z"/><path class="cls-3" d="M161.64,320.79h58.07c-21.13-7.59-13-79.08-9.05-106.18a9.06,9.06,0,0,0-9-10.34H163a15.84,15.84,0,0,0-15.71,13.67c-3.39,24.63-8.74,75.68,1.85,95.45A14.16,14.16,0,0,0,161.64,320.79Z" transform="translate(-61.6 -83.6)"/><path class="cls-5" d="M361.26,159.59H291.79a6.45,6.45,0,0,0-6.45,6.45v31.3a6.45,6.45,0,0,0,6.45,6.45h4.85v7.57a1.22,1.22,0,0,0,2,.9l9.39-8.47h53.2a6.45,6.45,0,0,0,6.45-6.45V166A6.45,6.45,0,0,0,361.26,159.59Z" transform="translate(-61.6 -83.6)"/><path class="cls-6" d="M312.48,182.17a2.84,2.84,0,1,1-2.84-2.84A2.84,2.84,0,0,1,312.48,182.17Z" transform="translate(-61.6 -83.6)"/><path class="cls-6" d="M330,182.17a2.84,2.84,0,1,1-2.84-2.84A2.84,2.84,0,0,1,330,182.17Z" transform="translate(-61.6 -83.6)"/><circle class="cls-6" cx="281.82" cy="98.56" r="2.84"/><path class="cls-7" d="M133.8,243.68c0-7.66-5.41-15.33-12.09-15.33s-12.08,7.67-12.08,15.33,5.41,13.87,12.08,13.87S133.8,251.34,133.8,243.68Z" transform="translate(-61.6 -83.6)"/><path class="cls-8" d="M121.71,228.35a8.83,8.83,0,0,0-3.1.58c5.17,1.91,9,8.33,9,14.75s-3.81,11.82-9,13.4a10.68,10.68,0,0,0,3.1.47c6.68,0,12.09-6.21,12.09-13.87S128.39,228.35,121.71,228.35Z" transform="translate(-61.6 -83.6)"/><path class="cls-9" d="M107.94,252.75l2.17,19.6a4.84,4.84,0,0,0,4.8,4.31h12.5a4.84,4.84,0,0,0,4.81-4.31l2.17-19.6a1.81,1.81,0,0,0-1.79-2H109.73A1.8,1.8,0,0,0,107.94,252.75Z" transform="translate(-61.6 -83.6)"/><path class="cls-3" d="M109.73,253.68H132.6a1.76,1.76,0,0,1,1.57,1l.22-1.93a1.81,1.81,0,0,0-1.79-2H109.73a1.8,1.8,0,0,0-1.79,2l.21,1.93A1.78,1.78,0,0,1,109.73,253.68Z" transform="translate(-61.6 -83.6)"/><path class="cls-3" d="M132.6,250.75h-7.93a1.8,1.8,0,0,1,1.79,2l-2.17,19.6a4.84,4.84,0,0,1-4.8,4.31h7.92a4.84,4.84,0,0,0,4.81-4.31l2.17-19.6A1.81,1.81,0,0,0,132.6,250.75Z" transform="translate(-61.6 -83.6)"/><polygon class="cls-10" points="171.13 305.41 170.31 311.08 174.62 316.59 185.55 311.24 186.74 306.06 173.13 304 171.13 305.41"/><path class="cls-11" d="M241.55,407.25l1.13-1.4a.53.53,0,0,1,.81,0l1.13,1.33a2.38,2.38,0,0,0,1.84.83l25.41-.43a1.36,1.36,0,0,0,0-1.92c-3.72-3.76-23.76-10.26-24.76-10.81s-7.12,4.22-15.24-.16a85.72,85.72,0,0,0-1.51,10.48,2.9,2.9,0,0,0,2.93,3.06l6.45-.11A2.3,2.3,0,0,0,241.55,407.25Z" transform="translate(-61.6 -83.6)"/><path class="cls-11" d="M186.1,293.26s-10.55,11.66,8.77,24.34c13.55,8.89,24.23,6.17,32.74,11.56a7.17,7.17,0,0,1,3.65,5.5l.43,54.52,1,.51a18.73,18.73,0,0,0,16.29.18h0l7.69-62.21c.28-4.28-2-7.9-4.7-11.28-14.77-18.79-40.92-25.15-47.54-26.24C195.85,288.73,186.1,293.26,186.1,293.26Z" transform="translate(-61.6 -83.6)"/><polygon class="cls-10" points="129.12 305.4 128.22 311.06 132.46 316.63 143.46 311.43 144.72 306.27 131.13 304.02 129.12 305.4"/><path class="cls-11" d="M199.29,407.36l1.15-1.38a.53.53,0,0,1,.81,0l1.11,1.35a2.39,2.39,0,0,0,1.83.85l25.41-.08a1.37,1.37,0,0,0,.07-1.92C226,402.37,206.05,395.6,205.06,395s-7.18,4.11-15.24-.38a84.59,84.59,0,0,0-1.65,10.46,2.89,2.89,0,0,0,2.89,3.1l6.45,0A2.31,2.31,0,0,0,199.29,407.36Z" transform="translate(-61.6 -83.6)"/><path class="cls-11" d="M154,283.09s-12.78,14.25,5.7,30.34c13,11.29,24.6,6.46,32.77,13.35a7.61,7.61,0,0,1,3.05,6.31l-5.84,55.45.44.29a17.58,17.58,0,0,0,17,1.16h0l14.46-58.44c.9-4.47-1-8.6-3.32-12.53-12.83-21.86-33-34.9-39.77-37C169.72,279.31,154,283.09,154,283.09Z" transform="translate(-61.6 -83.6)"/><path class="cls-12" d="M224.55,327.6a25.61,25.61,0,0,0-3-1,25.68,25.68,0,0,0-3.24-7.54,100.26,100.26,0,0,0-22-25.75c4.63-.78,7-1.77,8.27-3.08A87.08,87.08,0,0,1,218.51,294C224.8,304.46,224.78,321.52,224.55,327.6Z" transform="translate(-61.6 -83.6)"/><path class="cls-9" d="M188.45,207.7s-18.44-2.46-26.1,11.91-19.1,70.67-9.1,72.39c4.43.75,16.24,3.73,29.33,2.77,18-1.32,21.91-3,23.2-6.4l11.47-52.47a22.21,22.21,0,0,0-8.7-18.53A62.6,62.6,0,0,0,188.45,207.7Z" transform="translate(-61.6 -83.6)"/><path class="cls-3" d="M217.18,231.28s.24,31.61,10.17,33.52,36.39,1.32,36.39,1.32v10.05H207Z" transform="translate(-61.6 -83.6)"/><path class="cls-13" d="M203.44,217l2.23-11.18-14.49-11L188.4,207.9S193,228,203.44,217Z" transform="translate(-61.6 -83.6)"/><path class="cls-11" d="M221.93,184.46s-7.58,3.7-18.7-3.08c0,0-2.57,4.64-10,8.78,0,0-3.87-6.49-6.1-1.63a10.31,10.31,0,0,0-1,4c-7-9-2.06-20.88,4.45-27.28,6.16-6.07,19.5-3.66,27.83-.31,8.85,3.56,10.47-2.63,10.47-2.63C240,178,221.93,184.46,221.93,184.46Z" transform="translate(-61.6 -83.6)"/><path class="cls-10" d="M193.21,190.15s-3.87-6.48-6.1-1.62c-2.7,5.89.35,9.59,4,9.59,0,0,2.9,15.34,17,14.25s16.13-23.71,13.82-27.91c0,0-7.59,3.69-18.7-3.08C203.23,181.38,200.66,186,193.21,190.15Z" transform="translate(-61.6 -83.6)"/><path class="cls-9" d="M315.34,226H256.53a6.1,6.1,0,0,0-6,4.88l-7.83,38.38H314l7.33-35.94A6.1,6.1,0,0,0,315.34,226Z" transform="translate(-61.6 -83.6)"/><rect class="cls-14" x="152.05" y="185.68" width="103.01" height="6.75" rx="2.28"/><path class="cls-3" d="M313.76,269.29H241.94a2.9,2.9,0,0,1,2.9,2.9v.94a2.9,2.9,0,0,1-2.9,2.9h71.82a2.9,2.9,0,0,0,2.9-2.9v-.94A2.9,2.9,0,0,0,313.76,269.29Z" transform="translate(-61.6 -83.6)"/><path class="cls-9" d="M219.69,267.23c-11.45-1.33-43.58-4.61-49.08-5.18-6.94-.72,8.14-28.73,9.82-38.31s-5.63-9.93-5.63-9.93c-4.12-.52-8.62,0-12.45,5.8-7.84,11.87-16.57,46.58-12,55.15a3.1,3.1,0,0,0,2.74,1.62h66.57Z" transform="translate(-61.6 -83.6)"/><path class="cls-3" d="M219.69,267.23s-41.36-2.85-50.28-4c-6.92-.93,7.5-29.63,9.18-39.21s-5.75-9.18-5.75-9.18a17.62,17.62,0,0,0-6.45.61,12,12,0,0,1,8.41-1.61s7.3.36,5.63,9.94-14.61,37-10.24,38.07C175.56,263.13,208.24,265.9,219.69,267.23Z" transform="translate(-61.6 -83.6)"/><path class="cls-10" d="M219.69,276.53h15.43a1.45,1.45,0,0,0,1.22-2.25c-1.44-2.22-3.73-5.35-5.4-5.89-1-.31-8.5,0-11.25.26Z" transform="translate(-61.6 -83.6)"/><path class="cls-15" d="M221.93,184.46a12.27,12.27,0,0,1-3.49.87c-.19,1-.53,3-.71,5-.25,2.71,1.1,11.11.26,11.18a25.26,25.26,0,0,1-2.58-.07s-1.29,12.15-13.44,10.21l-.32-.05a15.4,15.4,0,0,0,6.46.81C222.2,211.29,224.24,188.66,221.93,184.46Z" transform="translate(-61.6 -83.6)"/><path class="cls-7" d="M398.78,361s19.38-9.61,14.11-24.19-8.53-15.19,1.55-23.4,24.65-28.84,6.2-30.39-17.52,22.94-32.86,26.35S364.06,376.94,398.78,361Z" transform="translate(-61.6 -83.6)"/><path class="cls-8" d="M383.53,362.42c3.72,1.73,8.73,1.56,15.25-1.44,0,0,19.38-9.61,14.11-24.19s-8.53-15.19,1.55-23.4,24.65-28.84,6.2-30.39a17.36,17.36,0,0,0-4.92.26c5.19,2.16,10.36,6.44,3.68,14.36-11.11,13.18-17,17.83-15.76,26.36C404.9,332.3,404.18,351.18,383.53,362.42Z" transform="translate(-61.6 -83.6)"/><path class="cls-7" d="M365.92,360.51s-17.05-.62-16.12-12.87,1.4-12.72-9.3-16.58c-18.92-6.82-3.94-43.15,11.47-20.31,10.69,15.85,15.34,12.29,22.32,13.53S396.46,365.94,365.92,360.51Z" transform="translate(-61.6 -83.6)"/><path class="cls-16" d="M374.29,324.28c-7-1.24-11.63,2.32-22.32-13.53-8.07-11.95-16-7.69-19,.06,4.54-1.39,11.43-2.23,12.29,5.16,1.12,9.58,23.53,25.31,23.08,44.87l.87.07c3.26-8.6,7.57-19.75,11.25-29.26C378.45,327.55,376.1,324.6,374.29,324.28Z" transform="translate(-61.6 -83.6)"/><path class="cls-6" d="M369.87,360s-21.16-20.7-13.95-24.18,21.39,7.9,13.49-4.42-17.12-31.52-6.19-28.5,11.72,6.34,10.37-8c-1.75-18.57,8.61-28.14,18.37-22.09s-8.37,47-1.63,42.55,12.33-8.14,13.72-2.79-19.3,26.35-11.62,22.79c9.53-4.42,10.93,3.49,7.9,8.37S384.75,377.64,369.87,360Z" transform="translate(-61.6 -83.6)"/><path class="cls-17" d="M400.33,343.69c3-4.88,1.63-12.79-7.9-8.37-7.68,3.56,13-17.44,11.62-22.79s-7-1.62-13.72,2.79,11.4-36.5,1.63-42.55c-4.54-2.81-9.19-2.21-12.71,1.07,5.05,1.23,9.1,5.3,6.29,16.28-5.94,23.26-9.56,42.65,1.3,37,10.22-5.35-11.88,19.33-12.1,37.12C387.43,371.45,397.65,348,400.33,343.69Z" transform="translate(-61.6 -83.6)"/><path class="cls-9" d="M355.22,362.4l4.09,37.07a9.16,9.16,0,0,0,9.1,8.15H392a9.14,9.14,0,0,0,9.09-8.15l4.1-37.07a3.41,3.41,0,0,0-3.39-3.78H358.61A3.41,3.41,0,0,0,355.22,362.4Z" transform="translate(-61.6 -83.6)"/><path class="cls-3" d="M401.84,358.62h-15a3.41,3.41,0,0,1,3.39,3.78l-4.1,37.07a9.15,9.15,0,0,1-9.09,8.15h15a9.14,9.14,0,0,0,9.09-8.15l4.1-37.07A3.41,3.41,0,0,0,401.84,358.62Z" transform="translate(-61.6 -83.6)"/><rect class="cls-18" x="35.71" y="192.81" width="263.73" height="11.97" rx="4.04"/><path class="cls-19" d="M355.88,276.41H102.45a5.16,5.16,0,0,0-5.15,5.15v1.67a5,5,0,0,0,.27,1.56,5.14,5.14,0,0,1,4.88-3.59H355.88a5.13,5.13,0,0,1,4.88,3.59,5,5,0,0,0,.27-1.56v-1.67A5.16,5.16,0,0,0,355.88,276.41Z" transform="translate(-61.6 -83.6)"/><polygon class="cls-6" points="120.96 324.19 112.49 324.19 53.56 204.84 62.03 204.84 120.96 324.19"/><polygon class="cls-6" points="27.7 324.19 36.17 324.19 95.1 204.84 86.63 204.84 27.7 324.19"/><polygon class="cls-6" points="303.39 324.19 294.93 324.19 236 204.84 244.47 204.84 303.39 324.19"/><polygon class="cls-6" points="210.14 324.19 218.61 324.19 277.54 204.84 269.07 204.84 210.14 324.19"/><polygon class="cls-20" points="64.36 209.57 62.03 204.84 53.56 204.84 55.89 209.57 64.36 209.57"/><polygon class="cls-20" points="92.76 209.57 95.1 204.84 86.63 204.84 84.29 209.57 92.76 209.57"/><polygon class="cls-20" points="246.8 209.57 244.47 204.84 236 204.84 238.33 209.57 246.8 209.57"/><polygon class="cls-20" points="275.2 209.57 277.54 204.84 269.07 204.84 266.73 209.57 275.2 209.57"/></svg>